<?xml version="1.0" encoding="utf-8"?>
<!-- Generator: Adobe Illustrator 27.5.0, SVG Export Plug-In . SVG Version: 6.00 Build 0)  -->
<svg version="1.1" id="Capa_1" xmlns="http://www.w3.org/2000/svg" xmlns:xlink="http://www.w3.org/1999/xlink" x="0px" y="0px"
	 viewBox="0 0 2122 2122" style="enable-background:new 0 0 2122 2122;" xml:space="preserve">
<g>
	<path style="fill:#C6C6A3;" d="M1311.508,1545.443c-101.345,48.73-236.989,73.437-403.164,73.437
		c-163.785,0-310.514-30.814-424.321-89.108c-0.256-0.137-0.577-0.071-0.763,0.153c-0.185,0.222-0.195,0.543-0.021,0.775
		c34.475,46.217,92.823,88.536,164.294,119.164c79.05,33.876,169.596,51.781,261.849,51.781c91.902,0,178.002-14.799,248.996-42.794
		c68.953-27.191,122.175-66.09,153.914-112.492c0.161-0.234,0.144-0.546-0.042-0.76
		C1312.066,1545.379,1311.759,1545.318,1311.508,1545.443z"/>
	<path style="fill:#583636;" d="M1553.408,604.564c-153.076-43.569-398.406-69.383-658.157-69.383
		c-3.812,0-7.649,0.005-11.469,0.017c-265.936,0.777-495.278,28.886-613.485,75.191c-0.253,0.097-0.414,0.351-0.395,0.621
		c0.017,0.27,0.207,0.499,0.472,0.565c29.357,7.242,63.579,14.005,101.805,20.119l0.339,0.053
		c5.325,0.851,10.726,1.688,16.207,2.512l0.198,0.029c16.38,2.466,33.773,4.858,51.7,7.106l1.632,0.205
		c5.554,0.692,11.164,1.374,16.843,2.041l1.016,0.12c11.993,1.41,24.518,2.791,37.235,4.104l1.603,0.161
		c5.608,0.578,11.274,1.141,16.982,1.693l3.008,0.29c5.698,0.546,11.444,1.079,17.238,1.601l1.822,0.166
		c12.811,1.145,26.066,2.251,39.396,3.281l3.596,0.273c5.386,0.412,10.804,0.811,16.258,1.203l4.546,0.322
		c5.754,0.407,11.55,0.799,17.376,1.181l2.656,0.178c6.916,0.448,13.875,0.885,20.889,1.299l1.501,0.088
		c6.182,0.363,12.411,0.711,18.669,1.05l5.654,0.3c5.121,0.27,10.266,0.531,15.433,0.782l5.842,0.282
		c5.9,0.28,11.832,0.548,17.79,0.804l3.184,0.141c7.069,0.297,14.178,0.58,21.323,0.845l4.59,0.163
		c5.556,0.2,11.135,0.393,16.738,0.573l13.14,0.395c0.005,0,0.013,0,0.017,0c0.327,0,0.6-0.253,0.622-0.582
		c0.326-4.799,4.323-8.558,9.103-8.558c4.987,0,9.094,4.061,9.152,9.055c0.005,0.336,0.273,0.609,0.609,0.616
		c5.106,0.127,10.215,0.251,15.352,0.361l2.57,0.061c7.286,0.151,14.611,0.283,21.963,0.402l6.139,0.088
		c5.323,0.078,10.653,0.148,16.005,0.21l7.737,0.08c5.142,0.048,10.302,0.087,15.474,0.119l7.089,0.044
		c7.44,0.036,14.902,0.058,22.395,0.058c7.825,0,15.618-0.024,23.386-0.063l6.945-0.044c5.725-0.036,11.432-0.083,17.128-0.141
		l6.867-0.071c7.674-0.09,15.33-0.19,22.94-0.316l0.392-0.008c7.516-0.124,14.982-0.273,22.429-0.434l6.607-0.151
		c5.637-0.129,11.254-0.27,16.852-0.419l6.438-0.175c15.009-0.424,29.981-0.926,44.497-1.486l6.097-0.241
		c5.647-0.227,11.267-0.461,16.86-0.709l5.571-0.244c14.4-0.656,28.948-1.393,43.233-2.195l5.335-0.307
		c5.627-0.324,11.223-0.657,16.792-1.001l4.872-0.304c14.207-0.899,28.224-1.868,41.661-2.877l4.56-0.346
		c5.63-0.429,11.223-0.87,16.777-1.321l3.859-0.312c13.403-1.104,26.864-2.297,40.005-3.547l3.673-0.353
		c5.589-0.538,11.128-1.089,16.624-1.649l2.996-0.304c12.923-1.335,25.727-2.748,38.053-4.197l2.711-0.324
		c5.542-0.658,11.026-1.328,16.453-2.007l2.047-0.256c12.119-1.535,24.168-3.157,35.81-4.828l1.932-0.278
		c5.394-0.78,10.723-1.569,15.98-2.373l1.179-0.178c11.31-1.737,22.49-3.562,33.223-5.428l1.308-0.229
		c5.118-0.894,10.163-1.798,15.204-2.734l0.485-0.088c10.334-1.922,20.478-3.929,30.156-5.97l1.004-0.215
		c4.694-0.994,9.303-2,13.812-3.018c0,0,0.161-0.034,0.163-0.034c9.311-2.107,18.305-4.285,26.733-6.468l0.777-0.205
		c4.146-1.079,8.222-2.176,12.124-3.264c0.017-0.005,0.08-0.024,0.097-0.029c0.251-0.095,0.414-0.341,0.405-0.609
		C1553.849,604.869,1553.666,604.638,1553.408,604.564z M1513.586,615.104L1513.586,615.104L1513.586,615.104L1513.586,615.104z"/>
	<path style="fill:#C6C6A3;" d="M1656.292,543.283c0-33.191-78.704-64.295-221.617-87.578
		c-142.606-23.232-332.204-36.029-533.868-36.029s-391.264,12.797-533.87,36.029c-142.911,23.284-221.617,54.387-221.617,87.578
		c0,24.321,42.636,47.788,123.303,67.861l1.751,0.431c0.049,0.012,0.098,0.017,0.149,0.017c0.078,0,0.154-0.014,0.227-0.044
		c118.073-46.251,347.245-74.326,613.037-75.103c3.832-0.012,7.642-0.017,11.469-0.017c259.625,0,504.85,25.8,657.812,69.334
		c0.11,0.032,0.224,0.034,0.339,0.003C1620.714,586.969,1656.292,565.363,1656.292,543.283z"/>
	<path style="fill:#EDE7CA;" d="M1884.628,698.213c-71.362-53.766-163.291-54.524-225.858-37.26
		c0.336-38.857-0.497-78.455-2.478-117.702l-1.247,0.031c0,21.459-35.262,42.65-102.032,61.296
		c-3.885,1.084-7.953,2.181-12.092,3.255l-0.777,0.204c-8.417,2.183-17.398,4.353-26.694,6.458l0.136,0.608h0l-0.297-0.574
		c-4.504,1.018-9.108,2.024-13.798,3.018l-1.006,0.214c-9.686,2.042-19.82,4.047-30.127,5.963l-0.565,0.102
		c-4.953,0.918-9.99,1.822-15.106,2.716l-1.306,0.229c-10.746,1.866-21.915,3.69-33.198,5.423l-1.179,0.178
		c-5.254,0.804-10.58,1.594-15.973,2.373l-1.927,0.278c-11.659,1.671-23.7,3.293-35.79,4.823l-2.046,0.255
		c-5.423,0.68-10.906,1.35-16.443,2.008l-2.712,0.324c-12.511,1.469-25.308,2.88-38.034,4.193l-2.996,0.304
		c-5.493,0.563-11.031,1.111-16.616,1.649l-3.671,0.353c-13.138,1.25-26.592,2.443-39.991,3.547l-3.859,0.312
		c-5.549,0.451-11.14,0.892-16.767,1.321l-4.561,0.346c-13.656,1.023-27.669,1.993-41.647,2.875l-4.872,0.302
		c-5.564,0.344-11.16,0.677-16.787,1.001l-5.33,0.307c-14.297,0.804-28.838,1.542-43.22,2.195l-5.569,0.243
		c-5.593,0.248-11.213,0.482-16.855,0.709l-6.098,0.241c-14.512,0.563-29.479,1.062-44.482,1.486l-6.438,0.175
		c-5.593,0.149-11.211,0.29-16.982,0.422l-6.472,0.149c-7.442,0.161-14.909,0.309-22.553,0.436l-0.261,0.005
		c-7.608,0.126-15.259,0.227-22.933,0.316l-6.867,0.071c-5.69,0.058-11.398,0.105-17.123,0.141l-6.941,0.044
		c-15.208,0.075-30.562,0.08-45.771,0.005l-7.084-0.044c-5.172-0.032-10.331-0.071-15.471-0.119l-7.734-0.08
		c-5.352-0.061-10.682-0.132-16-0.21l-6.139-0.088c-7.347-0.119-14.672-0.251-21.956-0.402l-2.57-0.061
		c-5.128-0.107-10.251-0.221-15.347-0.348l-0.628,0.09v206.235l88.104,20.314l65.047,104.431l-98.816,428.528
		c-4.804,20.838-25.657,33.883-46.499,29.077l-269.393-62.121c-10.095-2.329-18.677-8.446-24.168-17.231
		c-5.493-8.782-7.235-19.176-4.909-29.271l98.816-428.526l104.209-65.406l68.511,15.798l0.765,0.178V664.959
		c0-0.093,0.014-0.183,0.026-0.273c0.015-0.107,0.029-0.215,0.037-0.324l0.034-0.641l-13.774-0.429
		c-5.6-0.18-11.176-0.373-16.733-0.573l-4.587-0.163c-7.145-0.266-14.251-0.548-21.316-0.845l-3.183-0.141
		c-5.959-0.256-11.886-0.524-17.786-0.804l-5.839-0.282c-5.167-0.251-10.309-0.511-15.428-0.782l-5.652-0.3
		c-6.258-0.339-12.48-0.687-18.665-1.05l-1.501-0.088c-7.009-0.414-13.968-0.846-20.879-1.294l-2.656-0.178
		c-5.829-0.383-11.617-0.775-17.371-1.182l-4.545-0.321c-5.45-0.392-10.868-0.792-16.249-1.203l-3.596-0.273
		c-13.328-1.033-26.577-2.136-39.383-3.281l-1.82-0.166c-5.793-0.521-11.535-1.055-17.23-1.601l-3.006-0.29
		c-5.708-0.553-11.367-1.116-16.977-1.693l-1.603-0.161c-12.69-1.311-25.211-2.69-37.218-4.1l-1.016-0.119
		c-5.674-0.668-11.279-1.35-16.831-2.042l-1.632-0.205c-17.89-2.244-35.274-4.633-51.671-7.101l-0.198-0.029
		c-5.476-0.823-10.872-1.661-16.19-2.509l-0.438-0.071c-70.816-11.32-126.448-24.556-165.35-39.333
		c-40.056-15.218-60.365-31.311-60.365-47.832l-1.247-0.027c-9.703,219.386,7.664,413.941,51.617,578.265
		c44.207,165.269,103.632,254.041,135.118,292.248c37.445,45.432,88.383,84.835,151.398,117.113
		c113.983,58.385,260.908,89.245,424.891,89.245c166.363,0,302.19-24.75,403.704-73.559
		c69.493-33.413,122.502-78.112,157.552-132.86c10.154-15.861,20.536-33.72,30.865-53.089
		c115.881,11.337,236.141-31.159,329.982-116.716c94.955-86.58,148.95-205.751,148.136-326.957
		C1977.932,819.672,1945.442,744.036,1884.628,698.213z M1767.83,1156.14c-59.425,53.096-134.992,78.67-207.476,70.258
		c48.948-130.903,80.059-276.051,92.475-431.439c37.776-13.393,98.845-16.962,147.303,16.918
		c40.236,28.137,61.727,76.1,62.148,138.707C1862.794,1027.127,1828.368,1102.047,1767.83,1156.14z"/>
	<path style="fill:#D0CD9C;" d="M939.833,994.861l-65.32-104.87c-0.088-0.141-0.227-0.241-0.387-0.277l-87.873-20.261
		c-0.198-0.046-0.383,0-0.529,0.12c-0.149,0.117-0.236,0.297-0.236,0.487v32.779c0,0.241,0.139,0.46,0.356,0.563
		c14.604,6.926,22.565,23.389,18.933,39.142c-2.085,9.038-7.561,16.721-15.425,21.637c-7.864,4.916-17.177,6.472-26.205,4.392
		c-18.652-4.302-30.329-22.975-26.029-41.627c3.252-14.1,15.103-24.794,29.493-26.614c0.312-0.039,0.546-0.304,0.546-0.619v-34.17
		c0-0.29-0.2-0.543-0.483-0.607l-68.765-15.856c-0.168-0.034-0.334-0.007-0.473,0.078l-104.647,65.678
		c-0.139,0.088-0.239,0.227-0.275,0.388l-98.872,428.779c-2.404,10.419-0.604,21.147,5.062,30.214
		c5.669,9.064,14.529,15.379,24.945,17.78l269.393,62.122c3.016,0.696,6.029,1.028,8.997,1.028
		c18.219,0,34.736-12.543,38.998-31.035l98.875-428.781C939.95,995.17,939.921,995,939.833,994.861z"/>
	<path style="fill:#EDE7CA;" d="M767.156,899.714c0-0.178-0.078-0.348-0.212-0.468c-0.134-0.117-0.302-0.163-0.49-0.151
		c-14.906,1.885-27.184,12.964-30.55,27.568c-2.158,9.362-0.543,19.001,4.548,27.147c5.094,8.144,13.052,13.82,22.412,15.976
		c2.709,0.626,5.439,0.935,8.154,0.935c6.66,0,13.206-1.863,18.994-5.484c8.146-5.094,13.822-13.052,15.978-22.412
		c3.764-16.324-4.482-33.377-19.61-40.55c-0.198-0.095-0.419-0.083-0.602,0.036c-0.181,0.114-0.29,0.312-0.29,0.526v1.428
		c0,5.055-4.112,9.167-9.164,9.167c-5.055,0-9.167-4.112-9.167-9.167V899.714z"/>
	<path style="fill:#EDE7CA;" d="M610.503,980.096c-1.922-0.448-3.883-0.115-5.544,0.925c-1.664,1.04-2.823,2.665-3.262,4.575
		l-78.141,338.202c-0.914,3.944,1.554,7.895,5.498,8.806c0.555,0.129,1.108,0.19,1.654,0.19c3.34,0,6.371-2.299,7.152-5.688
		l78.141-338.202C616.915,984.958,614.448,981.007,610.503,980.096z"/>
	<path style="fill:#EDE7CA;" d="M544.886,1372.415l236.341,52.675c0.536,0.12,1.072,0.176,1.598,0.176
		c3.364,0,6.407-2.329,7.167-5.744c0.427-1.915,0.083-3.88-0.969-5.537c-1.053-1.654-2.685-2.802-4.599-3.228l-236.341-52.675
		c-3.944-0.875-7.881,1.62-8.765,5.569C538.438,1367.604,540.937,1371.535,544.886,1372.415z"/>
	<path style="fill:#EDE7CA;" d="M842.152,1164.174c0.139,1.959,1.033,3.742,2.516,5.025c1.345,1.167,3.03,1.793,4.794,1.793
		c0.178,0,0.358-0.005,0.536-0.02c1.959-0.139,3.742-1.033,5.026-2.516c1.284-1.481,1.914-3.374,1.773-5.33
		c-4.368-60.363-39.108-117.552-90.66-149.249c-3.457-2.119-7.981-1.031-10.098,2.414c-2.119,3.452-1.035,7.983,2.414,10.1
		C806.128,1055.606,838.198,1108.403,842.152,1164.174z"/>
	<path style="fill:#EDE7CA;" d="M792.442,974.315c-0.003,0-0.003,0-0.003,0c-1.647,1.062-2.782,2.704-3.194,4.624
		c-0.412,1.917-0.051,3.88,1.013,5.527c1.065,1.647,2.707,2.779,4.624,3.193c0.519,0.11,1.04,0.166,1.557,0.166
		c1.398,0,2.77-0.402,3.973-1.179c19.712-12.814,31.993-35.491,32.044-59.179c0-1.459-0.048-2.94-0.149-4.402
		c-0.129-1.956-1.013-3.744-2.49-5.037c-1.479-1.291-3.403-1.944-5.323-1.798c-1.959,0.129-3.747,1.016-5.037,2.492
		c-1.291,1.476-1.93,3.367-1.798,5.323c0.073,1.145,0.112,2.297,0.112,3.425C817.823,946.008,807.88,964.396,792.442,974.315z"/>
	<ellipse style="fill:#6E4345;" cx="1037.541" cy="600.796" rx="321.897" ry="40.046"/>
	<path style="fill:#88A17E;" d="M822.325,1162.671c-10.022-51.042-46.992-91.45-76.239-116.358
		c-31.666-26.967-61.359-42.086-61.656-42.237c-0.251-0.131-0.565-0.065-0.75,0.149c-0.219,0.251-21.99,25.474-41.108,62.412
		c-17.659,34.12-36.604,85.505-26.582,136.545c10.022,51.045,46.991,91.452,76.238,116.361
		c31.666,26.965,61.359,42.083,61.656,42.234c0.088,0.044,0.185,0.066,0.28,0.066c0.175,0,0.348-0.076,0.47-0.214
		c0.219-0.251,21.99-25.474,41.108-62.411C813.402,1265.097,832.347,1213.711,822.325,1162.671z"/>
	<path style="fill:#D0CD9C;" d="M817.404,1205.638c-0.329-1.181-1.096-2.163-2.163-2.767c-2.202-1.242-5.006-0.468-6.256,1.735
		c-15.084,26.675-33.172,51.885-53.778,74.96c-2.338-24.173-5.734-48.899-10.097-73.518c21.269-27.505,38.629-57.795,51.598-90.041
		c0.458-1.14,0.446-2.387-0.034-3.515c-0.48-1.128-1.371-2-2.507-2.456c-1.14-0.461-2.385-0.446-3.515,0.034
		c-1.127,0.482-2,1.373-2.458,2.509c-11.55,28.709-26.797,55.995-45.33,81.123c-3.798-19.883-8.251-39.739-13.242-59.04
		c0.295-0.395,0.519-0.824,0.665-1.272c8.441-25.483,15.106-51.808,19.81-78.239c0.215-1.206-0.051-2.424-0.753-3.43
		c-0.701-1.006-1.754-1.678-2.959-1.893c-1.203-0.209-2.426,0.051-3.432,0.753c-1.006,0.702-1.676,1.754-1.89,2.96
		c-3.822,21.457-9.13,43.33-15.786,65.05c-9.893-35.645-21.878-70.724-35.632-104.297c-0.964-2.341-3.646-3.464-5.988-2.507
		c-2.341,0.96-3.466,3.645-2.509,5.988c9.632,23.508,18.499,48.095,26.363,73.109c-21.106-7.798-39.91-17.837-53.057-28.334
		c-1.978-1.577-4.872-1.255-6.45,0.726c-1.577,1.98-1.25,4.872,0.728,6.45c19.703,15.691,44.609,26.088,62.143,32.073
		c8.653,28.746,16.01,58.39,21.878,88.137c-36.933-9.199-74.404-25.425-105.62-45.754c-2.121-1.379-4.964-0.777-6.353,1.342
		c-1.379,2.119-0.777,4.969,1.343,6.353c33.425,21.749,73.396,38.792,112.596,48.012c4.273,22.972,7.746,46.843,10.331,70.974
		c-34.375-7.932-68.619-21.028-99.086-37.895c-2.217-1.235-5.014-0.421-6.239,1.791c-0.595,1.075-0.733,2.314-0.395,3.491
		c0.338,1.179,1.116,2.156,2.187,2.748c32.256,17.851,68.4,31.52,104.548,39.54c2.134,22.085,3.486,44.219,4.02,65.788
		c0.063,2.49,2.112,4.475,4.589,4.473c0.036,0,0.075,0,0.112,0c1.228-0.029,2.368-0.536,3.213-1.425
		c0.845-0.889,1.294-2.052,1.262-3.277c-0.426-17.245-1.427-35.418-2.974-54.019c23.372-25.162,43.791-53.072,60.69-82.953
		C817.58,1208.057,817.731,1206.819,817.404,1205.638z"/>
	<path style="fill:#C6C6A3;" d="M1648.538,673.193c-1.525-1.238-3.452-1.803-5.386-1.6c-1.951,0.204-3.705,1.154-4.94,2.68
		c-10.767,13.296-16.704,30.602-16.709,48.728c0.003,16.504,5.042,32.543,14.195,45.159c1.432,1.976,3.676,3.026,5.951,3.026
		c1.493,0,3.003-0.453,4.302-1.396c3.276-2.38,4.005-6.979,1.627-10.258c-7.349-10.107-11.396-23.081-11.393-36.531
		c-0.007-14.792,4.762-28.811,13.432-39.481C1652.166,680.377,1651.681,675.743,1648.538,673.193z"/>
	<path style="fill:#C6C6A3;" d="M1525.781,1248.437c-1.936-0.329-3.88,0.12-5.479,1.25c-23.968,17.067-38.884,46.349-38.925,76.422
		c0,5.379,0.487,10.738,1.444,15.93c0.653,3.532,3.749,6.009,7.221,6.009c0.441,0,0.887-0.039,1.335-0.122
		c1.927-0.358,3.603-1.444,4.714-3.059c1.11-1.615,1.527-3.569,1.171-5.496c-0.796-4.312-1.201-8.775-1.201-13.262
		c-0.044-25.069,12.806-50.365,32.735-64.443c1.6-1.135,2.663-2.823,2.992-4.758c0.329-1.934-0.115-3.88-1.25-5.479
		C1529.403,1249.828,1527.715,1248.768,1525.781,1248.437z"/>
	<path style="fill:#DDB790;" d="M786.725,664.854c0-0.019,0-0.039-0.003-0.061c-0.09-5.654-4.745-10.246-10.399-10.246
		c-5.433,0-9.978,4.27-10.351,9.741c-0.002,0.078-0.015,0.151-0.024,0.224c-0.019,0.146-0.039,0.295-0.039,0.446v239.308
		c0,5.742,4.672,10.414,10.414,10.414c5.741,0,10.412-4.672,10.412-10.414L786.725,664.854z"/>
</g>
</svg>
