<?xml version="1.0" encoding="utf-8"?>
<!-- Generator: Adobe Illustrator 27.5.0, SVG Export Plug-In . SVG Version: 6.00 Build 0)  -->
<svg version="1.1" id="Layer_1" xmlns="http://www.w3.org/2000/svg" xmlns:xlink="http://www.w3.org/1999/xlink" x="0px" y="0px"
	 viewBox="0 0 255.865 164.737" style="enable-background:new 0 0 255.865 164.737;" xml:space="preserve">
<g>
	<g>
		<path style="fill:#FFFFFF;" d="M223.559,64.201c-4.043,5.196-11.115,9.12-18.245,11.973c2.383-6.198,4.352-12.769,5.885-19.652
			c3.12-1.085,6.148-1.652,8.867-1.652c3.991,0,6.092,1.255,6.479,2.047C226.902,57.648,226.738,60.111,223.559,64.201z
			 M231.521,31.38c-6.013-1.138-11.678-1.196-16.836-0.205c-0.053-0.513-0.147-1.028-0.284-1.542
			c-0.075-0.33-0.18-0.658-0.309-0.976c-1.767-4.713-7.653-11.481-37.244-16.397c-17.893-2.973-41.687-4.678-65.283-4.678
			c-24.894,0-49.636,1.868-67.881,5.124C19.613,17.003,8.403,23.173,8.403,32.122c0,0.449,0.034,0.907,0.108,1.387
			c0.235,4.998,1.476,21.199,7.873,39.314c6.814,19.302,17.076,34.435,30.582,45.143c-27.213,5.069-30.676,12.288-30.676,17.533
			c0,0.704,0.081,1.4,0.242,2.085c-0.161,0.685-0.242,1.38-0.242,2.085c0,8.355,10.524,14.066,33.121,17.976
			c16.98,2.938,40.006,4.622,63.172,4.622s46.191-1.685,63.173-4.622c22.598-3.909,33.122-9.621,33.122-17.976
			c0-0.704-0.081-1.401-0.242-2.085c0.161-0.685,0.242-1.381,0.242-2.085c0-5.381-3.65-12.786-32.442-17.856
			c3.894-3.152,7.53-6.693,10.885-10.599c15.587-4.582,36.014-11.653,47.814-20c12.229-8.651,19.071-24.285,16.27-37.175
			C249.283,40.119,242.038,33.381,231.521,31.38z"/>
		<path style="fill:#F1F1F1;" d="M223.143,63.735c-4.043,5.197-11.114,9.12-18.245,11.974c2.384-6.199,4.354-12.769,5.886-19.652
			c3.12-1.085,6.148-1.651,8.867-1.651c3.991,0,6.092,1.254,6.479,2.046C226.487,57.184,226.322,59.647,223.143,63.735z
			 M231.105,30.915c-6.013-1.138-11.677-1.196-16.835-0.205c-0.053-0.514-0.155-1.026-0.283-1.541
			c-0.083-0.33-0.186-0.657-0.31-0.976c-1.824-4.69-7.654-11.482-37.244-16.399c-17.893-2.973-41.686-4.678-65.284-4.678
			c-24.894,0-49.635,1.869-67.88,5.125C19.199,16.539,7.988,22.709,7.988,31.656c0,0.451,0.035,0.908,0.107,1.388
			c0.235,4.998,1.477,21.199,7.873,39.315c6.814,19.301,17.075,34.434,30.582,45.142c-27.213,5.069-30.676,12.287-30.676,17.533
			c0,0.704,0.08,1.4,0.242,2.085c-0.162,0.685-0.242,1.38-0.242,2.085c0,8.355,10.525,14.067,33.12,17.976
			c16.982,2.938,40.007,4.622,63.173,4.622s46.191-1.685,63.174-4.622c22.596-3.908,33.121-9.62,33.121-17.976
			c0-0.704-0.081-1.401-0.242-2.085c0.161-0.684,0.242-1.381,0.242-2.085c0-5.381-3.649-12.785-32.442-17.856
			c3.894-3.152,7.531-6.692,10.884-10.599c15.587-4.582,36.015-11.653,47.814-20c12.23-8.651,19.07-24.284,16.269-37.174
			C248.868,39.654,241.623,32.915,231.105,30.915z"/>
		<path style="fill:#E2E2E2;" d="M222.729,63.271c-4.043,5.196-11.115,9.12-18.244,11.975c2.382-6.2,4.352-12.771,5.884-19.654
			c3.12-1.084,6.149-1.651,8.867-1.651c3.991,0,6.092,1.255,6.48,2.047C226.072,56.72,225.908,59.183,222.729,63.271z
			 M230.692,30.45c-6.014-1.138-11.679-1.196-16.837-0.205c-0.053-0.513-0.156-1.026-0.283-1.54
			c-0.082-0.331-0.185-0.657-0.309-0.977c-1.83-4.688-7.654-11.482-37.245-16.398c-17.892-2.973-41.686-4.678-65.282-4.678
			c-24.895,0-49.636,1.868-67.882,5.126C18.784,16.074,7.573,22.244,7.573,31.192c0,0.451,0.035,0.907,0.107,1.387
			c0.235,4.999,1.478,21.2,7.873,39.315c6.814,19.302,17.076,34.434,30.582,45.142c-27.213,5.07-30.676,12.289-30.676,17.533
			c0,0.706,0.081,1.401,0.242,2.086c-0.161,0.684-0.242,1.379-0.242,2.084c0,8.354,10.525,14.066,33.121,17.977
			c16.98,2.938,40.006,4.621,63.172,4.621c23.167,0,46.191-1.684,63.174-4.621c22.597-3.91,33.122-9.622,33.122-17.977
			c0-0.703-0.082-1.401-0.243-2.084c0.161-0.685,0.243-1.38,0.243-2.086c0-5.38-3.65-12.785-32.443-17.856
			c3.893-3.152,7.531-6.693,10.885-10.599c15.587-4.582,36.014-11.653,47.813-19.999c12.23-8.651,19.071-24.285,16.27-37.175
			C248.453,39.19,241.209,32.451,230.692,30.45z"/>
		<path style="fill:#D4D4D4;" d="M222.313,62.807c-4.043,5.196-11.114,9.12-18.243,11.974c2.381-6.199,4.352-12.77,5.883-19.653
			c3.122-1.085,6.149-1.652,8.868-1.652c3.99,0,6.093,1.256,6.479,2.047C225.657,56.254,225.492,58.718,222.313,62.807z
			 M230.276,29.985c-6.014-1.138-11.678-1.195-16.836-0.205c-0.052-0.513-0.155-1.026-0.283-1.542
			c-0.082-0.329-0.185-0.655-0.31-0.976c-1.828-4.689-7.653-11.481-37.244-16.397c-17.893-2.972-41.688-4.678-65.283-4.678
			c-24.895,0-49.635,1.869-67.881,5.126C18.369,15.608,7.157,21.778,7.157,30.729c0,0.448,0.036,0.906,0.108,1.386
			c0.235,4.998,1.478,21.199,7.873,39.316c6.814,19.301,17.075,34.433,30.583,45.141c-27.215,5.069-30.677,12.288-30.677,17.533
			c0,0.705,0.081,1.4,0.241,2.085c-0.16,0.684-0.241,1.38-0.241,2.085c0,8.355,10.525,14.066,33.121,17.976
			c16.98,2.939,40.006,4.623,63.172,4.623s46.192-1.684,63.174-4.623c22.597-3.909,33.121-9.621,33.121-17.976
			c0-0.704-0.082-1.401-0.242-2.085c0.16-0.685,0.242-1.38,0.242-2.085c0-5.38-3.649-12.785-32.443-17.857
			c3.895-3.152,7.532-6.693,10.886-10.599c15.586-4.581,36.014-11.653,47.814-20c12.229-8.651,19.07-24.285,16.269-37.174
			C248.037,38.725,240.793,31.986,230.276,29.985z"/>
		<path style="fill:#C5C5C5;" d="M221.898,62.342c-4.043,5.197-11.115,9.121-18.244,11.974c2.382-6.198,4.352-12.77,5.885-19.652
			c3.12-1.085,6.147-1.652,8.867-1.652c3.99,0,6.092,1.255,6.479,2.047C225.242,55.791,225.077,58.253,221.898,62.342z
			 M229.861,29.521c-6.014-1.138-11.678-1.196-16.836-0.206c-0.052-0.512-0.155-1.025-0.283-1.541
			c-0.081-0.329-0.185-0.656-0.309-0.976c-1.83-4.688-7.654-11.481-37.245-16.397c-17.892-2.973-41.687-4.678-65.282-4.678
			c-24.895,0-49.636,1.867-67.882,5.124C17.954,15.144,6.742,21.315,6.742,30.263c0,0.45,0.036,0.908,0.108,1.387
			c0.235,4.999,1.478,21.2,7.873,39.315c6.814,19.302,17.076,34.435,30.583,45.143c-27.213,5.069-30.677,12.288-30.677,17.532
			c0,0.705,0.081,1.401,0.243,2.085c-0.162,0.686-0.243,1.381-0.243,2.085c0,8.355,10.525,14.067,33.121,17.977
			c16.981,2.938,40.006,4.622,63.173,4.622c23.166,0,46.191-1.685,63.173-4.622c22.597-3.909,33.121-9.621,33.121-17.977
			c0-0.703-0.08-1.4-0.242-2.085c0.162-0.684,0.242-1.38,0.242-2.085c0-5.38-3.648-12.785-32.442-17.855
			c3.894-3.152,7.531-6.693,10.885-10.599c15.587-4.582,36.014-11.653,47.813-20c12.23-8.651,19.071-24.285,16.269-37.175
			C247.623,38.261,240.378,31.522,229.861,29.521z"/>
		<path style="fill:#B7B7B7;" d="M221.483,61.878c-4.043,5.197-11.115,9.12-18.244,11.974c2.383-6.199,4.352-12.771,5.885-19.653
			c3.12-1.084,6.149-1.651,8.867-1.651c3.99,0,6.092,1.255,6.479,2.047C224.827,55.326,224.664,57.789,221.483,61.878z
			 M229.447,29.058c-6.014-1.138-11.679-1.197-16.838-0.206c-0.051-0.513-0.154-1.025-0.282-1.541
			c-0.081-0.33-0.185-0.656-0.309-0.976c-1.83-4.689-7.654-11.482-37.244-16.398c-17.893-2.973-41.688-4.678-65.283-4.678
			c-24.895,0-49.636,1.868-67.882,5.125C17.539,14.681,6.327,20.85,6.327,29.799c0,0.45,0.036,0.907,0.109,1.387
			c0.233,4.999,1.477,21.2,7.872,39.315c6.815,19.302,17.077,34.435,30.582,45.142c-27.212,5.07-30.677,12.288-30.677,17.533
			c0,0.705,0.083,1.401,0.244,2.085c-0.161,0.685-0.244,1.38-0.244,2.086c0,8.354,10.526,14.067,33.122,17.976
			c16.981,2.938,40.006,4.621,63.173,4.621c23.166,0,46.191-1.684,63.172-4.621c22.598-3.908,33.123-9.622,33.123-17.976
			c0-0.705-0.081-1.402-0.242-2.086c0.161-0.684,0.242-1.38,0.242-2.085c0-5.38-3.649-12.785-32.442-17.855
			c3.893-3.153,7.53-6.693,10.885-10.6c15.586-4.582,36.012-11.653,47.814-19.999c12.229-8.651,19.071-24.285,16.269-37.174
			C247.209,37.797,239.963,31.058,229.447,29.058z"/>
		<path style="fill:#A8A8A8;" d="M221.068,61.414c-4.043,5.196-11.115,9.119-18.244,11.974c2.382-6.2,4.352-12.772,5.885-19.654
			c3.12-1.084,6.148-1.652,8.866-1.652c3.992,0,6.092,1.257,6.48,2.049C224.412,54.86,224.248,57.323,221.068,61.414z
			 M229.031,28.592c-6.013-1.138-11.678-1.196-16.837-0.205c-0.052-0.513-0.154-1.025-0.282-1.541
			c-0.081-0.33-0.184-0.657-0.309-0.976c-1.833-4.688-7.653-11.482-37.244-16.398c-17.893-2.973-41.688-4.678-65.284-4.678
			c-24.894,0-49.635,1.868-67.881,5.125C17.123,14.216,5.912,20.385,5.912,29.334c0,0.45,0.036,0.907,0.108,1.387
			c0.235,4.999,1.478,21.199,7.873,39.315c6.814,19.301,17.076,34.434,30.582,45.143C17.263,120.248,13.8,127.467,13.8,132.711
			c0,0.705,0.081,1.401,0.242,2.085c-0.161,0.685-0.242,1.38-0.242,2.085c0,8.354,10.525,14.066,33.122,17.977
			c16.98,2.936,40.005,4.621,63.171,4.621s46.192-1.685,63.173-4.621c22.599-3.91,33.122-9.622,33.122-17.977
			c0-0.703-0.081-1.401-0.242-2.085c0.161-0.684,0.242-1.38,0.242-2.085c0-5.381-3.648-12.785-32.441-17.856
			c3.893-3.152,7.53-6.693,10.884-10.598c15.586-4.583,36.013-11.654,47.815-20.001c12.228-8.65,19.07-24.284,16.268-37.174
			C246.793,37.332,239.548,30.593,229.031,28.592z"/>
		<path style="fill:#9A9A9A;" d="M220.653,60.949c-4.042,5.196-11.115,9.12-18.244,11.973c2.382-6.198,4.352-12.77,5.884-19.652
			c3.12-1.085,6.148-1.652,8.867-1.652c3.991,0,6.093,1.255,6.479,2.047C223.997,54.396,223.833,56.859,220.653,60.949z
			 M228.616,28.128c-6.013-1.138-11.678-1.196-16.836-0.205c-0.052-0.513-0.157-1.025-0.283-1.542
			c-0.082-0.328-0.185-0.656-0.31-0.976c-1.836-4.687-7.652-11.481-37.244-16.397C156.051,6.035,132.257,4.33,108.66,4.33
			c-24.894,0-49.636,1.868-67.881,5.124C16.709,13.751,5.498,19.921,5.498,28.87c0,0.449,0.034,0.907,0.107,1.387
			c0.235,4.998,1.477,21.199,7.874,39.314c6.815,19.302,17.075,34.435,30.581,45.143c-27.213,5.069-30.676,12.288-30.676,17.533
			c0,0.704,0.081,1.4,0.242,2.085c-0.161,0.685-0.242,1.38-0.242,2.084c0,8.355,10.524,14.067,33.122,17.977
			c16.98,2.938,40.005,4.622,63.171,4.622c23.166,0,46.192-1.685,63.173-4.622c22.599-3.909,33.122-9.621,33.122-17.977
			c0-0.703-0.081-1.4-0.242-2.084c0.161-0.684,0.242-1.381,0.242-2.085c0-5.381-3.649-12.787-32.442-17.856
			c3.894-3.152,7.531-6.693,10.885-10.599c15.587-4.582,36.014-11.653,47.813-20c12.229-8.651,19.071-24.285,16.27-37.175
			C246.378,36.867,239.133,30.129,228.616,28.128z"/>
		<path style="fill:#8B8B8B;" d="M220.238,60.483c-4.043,5.197-11.114,9.12-18.244,11.974c2.382-6.199,4.352-12.77,5.884-19.652
			c3.121-1.085,6.148-1.651,8.867-1.651c3.991,0,6.092,1.254,6.479,2.046C223.583,53.932,223.418,56.395,220.238,60.483z
			 M228.201,27.663c-6.013-1.138-11.678-1.196-16.836-0.205c-0.053-0.514-0.154-1.026-0.282-1.542
			c-0.082-0.33-0.186-0.656-0.31-0.976c-1.83-4.689-7.652-11.481-37.243-16.398c-17.893-2.972-41.688-4.677-65.284-4.677
			c-24.894,0-49.636,1.867-67.881,5.125C16.294,13.287,5.083,19.456,5.083,28.404c0,0.45,0.036,0.908,0.107,1.388
			c0.235,4.998,1.477,21.199,7.873,39.314c6.814,19.303,17.076,34.435,30.582,45.143c-27.213,5.069-30.676,12.287-30.676,17.533
			c0,0.705,0.081,1.4,0.242,2.084c-0.161,0.687-0.242,1.381-0.242,2.085c0,8.356,10.525,14.067,33.122,17.977
			c16.98,2.938,40.005,4.622,63.171,4.622c23.167,0,46.192-1.684,63.174-4.622c22.598-3.909,33.122-9.62,33.122-17.977
			c0-0.703-0.082-1.4-0.243-2.085c0.161-0.684,0.243-1.379,0.243-2.084c0-5.38-3.649-12.786-32.443-17.856
			c3.895-3.151,7.531-6.692,10.885-10.6c15.587-4.58,36.014-11.652,47.814-19.998c12.229-8.652,19.07-24.286,16.268-37.176
			C245.963,36.402,238.718,29.663,228.201,27.663z"/>
		<path style="fill:#7D7D7D;" d="M219.823,60.02c-4.043,5.196-11.115,9.12-18.244,11.974c2.382-6.199,4.352-12.771,5.884-19.653
			c3.12-1.084,6.149-1.651,8.867-1.651c3.991,0,6.092,1.255,6.48,2.047C223.167,53.468,223.003,55.931,219.823,60.02z
			 M227.787,27.198c-6.014-1.138-11.679-1.197-16.837-0.205c-0.053-0.513-0.155-1.026-0.283-1.541
			c-0.082-0.33-0.185-0.657-0.309-0.976c-1.833-4.689-7.654-11.483-37.245-16.399C155.222,5.104,131.427,3.4,107.831,3.4
			c-24.895,0-49.636,1.868-67.882,5.125C15.879,12.822,4.668,18.991,4.668,27.94c0,0.451,0.035,0.908,0.107,1.388
			c0.235,4.999,1.478,21.2,7.873,39.315c6.814,19.301,17.076,34.434,30.582,45.142c-27.213,5.069-30.676,12.288-30.676,17.533
			c0,0.705,0.081,1.401,0.242,2.085c-0.161,0.685-0.242,1.38-0.242,2.085c0,8.354,10.525,14.066,33.121,17.977
			c16.98,2.938,40.006,4.62,63.172,4.62c23.167,0,46.192-1.683,63.174-4.62c22.597-3.91,33.122-9.622,33.122-17.977
			c0-0.704-0.082-1.401-0.243-2.085c0.161-0.684,0.243-1.38,0.243-2.085c0-5.381-3.65-12.785-32.443-17.856
			c3.894-3.152,7.531-6.693,10.885-10.599c15.587-4.583,36.014-11.653,47.813-19.999c12.23-8.651,19.071-24.285,16.27-37.175
			C245.548,35.938,238.304,29.199,227.787,27.198z"/>
		<path style="fill:#6E6E6E;" d="M219.408,59.555c-4.043,5.197-11.115,9.12-18.244,11.974c2.382-6.199,4.352-12.769,5.884-19.653
			c3.121-1.085,6.149-1.651,8.868-1.651c3.99,0,6.092,1.255,6.479,2.046C222.752,53.002,222.588,55.466,219.408,59.555z
			 M227.372,26.733c-6.014-1.138-11.678-1.196-16.837-0.204c-0.052-0.514-0.156-1.027-0.283-1.542
			c-0.081-0.33-0.184-0.657-0.308-0.977c-1.825-4.69-7.655-11.481-37.246-16.397c-17.892-2.973-41.686-4.678-65.282-4.678
			c-24.895,0-49.635,1.869-67.881,5.125C15.464,12.357,4.253,18.527,4.253,27.476c0,0.45,0.035,0.908,0.108,1.388
			c0.234,4.997,1.477,21.198,7.872,39.315c6.814,19.3,17.076,34.433,30.583,45.141c-27.214,5.07-30.677,12.288-30.677,17.534
			c0,0.703,0.082,1.399,0.242,2.085c-0.16,0.684-0.242,1.379-0.242,2.085c0,8.354,10.526,14.066,33.121,17.975
			c16.98,2.938,40.006,4.622,63.173,4.622c23.166,0,46.191-1.684,63.173-4.622c22.597-3.908,33.122-9.62,33.122-17.975
			c0-0.705-0.082-1.402-0.242-2.085c0.16-0.686,0.242-1.382,0.242-2.085c0-5.382-3.65-12.785-32.442-17.857
			c3.893-3.152,7.53-6.692,10.885-10.598c15.586-4.583,36.013-11.654,47.813-20.001c12.23-8.651,19.071-24.284,16.27-37.173
			C245.133,35.473,237.889,28.734,227.372,26.733z"/>
		<path style="fill:#606060;" d="M218.993,59.09c-4.043,5.197-11.115,9.121-18.244,11.974c2.382-6.198,4.352-12.77,5.885-19.652
			c3.12-1.085,6.148-1.652,8.867-1.652c3.99,0,6.092,1.255,6.479,2.047C222.337,52.538,222.173,55.001,218.993,59.09z
			 M226.957,26.27c-6.014-1.138-11.678-1.196-16.837-0.206c-0.052-0.512-0.146-1.027-0.283-1.541
			c-0.076-0.33-0.18-0.658-0.309-0.976c-1.767-4.714-7.654-11.481-37.245-16.399c-17.892-2.972-41.686-4.677-65.282-4.677
			c-24.895,0-49.636,1.867-67.881,5.124C15.049,11.893,3.838,18.063,3.838,27.011c0,0.45,0.035,0.908,0.108,1.387
			c0.234,4.999,1.477,21.2,7.872,39.315c6.815,19.302,17.077,34.435,30.583,45.143c-27.213,5.069-30.677,12.288-30.677,17.532
			c0,0.705,0.082,1.401,0.243,2.085c-0.161,0.686-0.243,1.381-0.243,2.085c0,8.355,10.525,14.067,33.121,17.977
			c16.982,2.938,40.006,4.622,63.173,4.622c23.166,0,46.191-1.685,63.173-4.622c22.597-3.909,33.122-9.621,33.122-17.977
			c0-0.703-0.081-1.4-0.242-2.085c0.161-0.684,0.242-1.38,0.242-2.085c0-5.38-3.649-12.785-32.443-17.855
			c3.894-3.152,7.531-6.693,10.886-10.599c15.586-4.582,36.013-11.653,47.813-20c12.229-8.651,19.071-24.285,16.27-37.175
			C244.718,35.009,237.474,28.271,226.957,26.27z"/>
	</g>
	<path style="fill:#FFFFFF;" d="M226.957,26.27c-6.014-1.138-11.678-1.196-16.837-0.206c-0.052-0.512-0.146-1.027-0.283-1.541
		c-0.076-0.33-0.18-0.658-0.309-0.976c-1.767-4.714-7.654-11.481-37.245-16.399c-17.892-2.972-41.686-4.677-65.282-4.677
		c-24.895,0-49.636,1.867-67.881,5.124C15.049,11.893,3.838,18.063,3.838,27.011c0,0.45,0.035,0.908,0.108,1.387
		c0.234,4.999,1.477,21.2,7.872,39.315c6.815,19.302,17.077,34.435,30.583,45.143c-27.213,5.069-30.677,12.288-30.677,17.532
		c0,0.705,0.082,1.401,0.243,2.085c-0.161,0.686-0.243,1.381-0.243,2.085c0,8.355,10.525,14.067,33.121,17.977
		c16.982,2.938,40.006,4.622,63.173,4.622c23.166,0,46.191-1.685,63.173-4.622c22.597-3.909,33.122-9.621,33.122-17.977
		c0-0.703-0.081-1.4-0.242-2.085c0.161-0.684,0.242-1.38,0.242-2.085c0-5.38-3.649-12.785-32.443-17.855
		c3.894-3.152,7.531-6.693,10.886-10.599c15.586-4.582,36.013-11.653,47.813-20c12.229-8.651,19.071-24.285,16.27-37.175
		C244.718,35.009,237.474,28.271,226.957,26.27z M218.993,59.09c-4.043,5.197-11.115,9.121-18.244,11.974
		c2.382-6.198,4.352-12.77,5.885-19.652c3.12-1.085,6.148-1.652,8.867-1.652c3.99,0,6.092,1.255,6.479,2.047
		C222.337,52.538,222.173,55.001,218.993,59.09z"/>
	<g>
		<g>
			<path style="fill:#FFFEF7;" d="M197.908,134.558c0,8.946-40.243,16.196-89.89,16.196c-49.646,0-89.89-7.25-89.89-16.196
				c0-8.94,40.244-16.187,89.89-16.187C157.665,118.371,197.908,125.617,197.908,134.558z"/>
			<path style="fill:#5C2F10;" d="M108.019,152.306c-44.329,0-91.443-6.22-91.443-17.748c0-11.522,47.114-17.742,91.443-17.742
				s91.445,6.22,91.445,17.742C199.464,146.086,152.348,152.306,108.019,152.306z M108.019,119.921
				c-54.729,0-88.335,8.525-88.335,14.637c0,6.114,33.605,14.642,88.335,14.642s88.338-8.527,88.338-14.642
				C196.357,128.446,162.748,119.921,108.019,119.921z"/>
		</g>
		<g>
			<path style="fill:#FFFEF7;" d="M197.908,130.388c0,8.944-40.243,16.193-89.89,16.193c-49.646,0-89.89-7.249-89.89-16.193
				c0-8.938,40.244-16.188,89.89-16.188C157.665,114.199,197.908,121.449,197.908,130.388z"/>
			<path style="fill:#5C2F10;" d="M108.019,148.138c-44.329,0-91.443-6.222-91.443-17.75c0-11.522,47.114-17.74,91.443-17.74
				s91.445,6.218,91.445,17.74C199.464,141.916,152.348,148.138,108.019,148.138z M108.019,115.755
				c-54.729,0-88.335,8.521-88.335,14.633c0,6.114,33.605,14.644,88.335,14.644s88.338-8.529,88.338-14.644
				C196.357,124.276,162.748,115.755,108.019,115.755z"/>
		</g>
		<path style="fill:#DEDFDA;" d="M167.18,130.388c0,5.891-26.483,10.661-59.161,10.661c-32.675,0-59.162-4.77-59.162-10.661
			c0-5.882,26.487-10.652,59.162-10.652C140.696,119.735,167.18,124.506,167.18,130.388z"/>
		<g>
			<g>
				<path style="fill:#FFFEF7;" d="M71.957,119.03v10.063c0,3.017,16.145,5.466,36.062,5.466s36.063-2.449,36.063-5.466V119.03
					H71.957z"/>
				<path style="fill:#5C2F10;" d="M108.019,136.113c-6.282,0-37.614-0.339-37.614-7.02V119.03c0-0.856,0.694-1.554,1.553-1.554
					h72.124c0.856,0,1.553,0.697,1.553,1.554v10.063C145.634,135.774,114.298,136.113,108.019,136.113z M73.511,128.878
					c1.649,1.721,14.591,4.13,34.508,4.13s32.857-2.409,34.508-4.13v-8.294H73.511V128.878z"/>
			</g>
			<g>
				<path style="fill:#FFFEF7;" d="M195.49,42.068c0,0,8.231-13.69,30.277-9.506c22.046,4.187,18.325,31.958,1.103,44.143
					c-17.225,12.184-56.854,22.102-56.854,22.102l7.757-14.848c0,0,33.805-4.903,46.273-20.94
					c14.075-18.095-7.627-26.421-28.885-13.157L195.49,42.068z"/>
				<path style="fill:#5C2F10;" d="M170.017,100.357c-0.469,0-0.921-0.208-1.218-0.591c-0.38-0.478-0.441-1.135-0.157-1.681
					l7.751-14.847c0.232-0.442,0.663-0.747,1.156-0.817c0.334-0.049,33.335-5.007,45.272-20.354
					c3.792-4.874,5.038-9.277,3.516-12.392c-1.458-2.984-5.509-4.767-10.836-4.767c-6.106,0-13.035,2.228-19.517,6.274
					c-0.491,0.299-1.107,0.31-1.605,0.022c-0.499-0.292-0.793-0.835-0.771-1.407l0.329-7.796c0.01-0.262,0.088-0.514,0.221-0.735
					c0.272-0.453,6.84-11.055,23.558-11.055c2.659,0,5.465,0.278,8.34,0.822c8.634,1.642,14.331,6.879,16.043,14.755
					c2.407,11.073-3.621,24.607-14.331,32.184c-17.263,12.211-55.742,21.932-57.373,22.341
					C170.27,100.347,170.144,100.357,170.017,100.357z M178.785,85.372l-5.763,11.036c9.922-2.7,39.077-11.159,52.952-20.971
					c9.58-6.777,15.205-19.241,13.088-28.986c-1.011-4.657-4.189-10.579-13.585-12.36c-2.685-0.512-5.295-0.771-7.762-0.771
					c-13.531,0-19.533,7.57-20.693,9.239l-0.192,4.524c6.243-3.422,12.781-5.282,18.671-5.282c6.638,0,11.604,2.37,13.628,6.508
					c2.072,4.24,0.702,9.802-3.856,15.664C213.489,79.126,184.118,84.506,178.785,85.372z"/>
			</g>
			<g>
				<path style="fill:#FFFEF7;" d="M105.997,25.357v-0.231l-7.349,0.125l-8.739-0.125l0.021,0.272l-79.636,1.362
					c0,0,0.75,96.276,87.269,98.185l0.006,0.036h17.678C203.02,123.986,203.6,25.96,203.6,25.96L105.997,25.357z"/>
				<path style="fill:#5C2F10;" d="M115.247,126.534H97.569c-0.129,0-0.252-0.017-0.373-0.045
					C10.507,124.333,8.75,27.75,8.741,26.772c-0.006-0.853,0.674-1.55,1.527-1.565l78.737-1.345
					c0.265-0.193,0.613-0.313,0.926-0.292l8.737,0.125l7.301-0.125c0.31,0.012,0.6,0.08,0.85,0.239l96.788,0.593
					c0.857,0.008,1.548,0.705,1.543,1.565c-0.004,0.997-1.607,99.567-89.887,100.567
					C115.259,126.534,115.254,126.534,115.247,126.534z M97.901,123.428h17.337c35.741-0.407,61.203-16.882,75.683-48.97
					c9.276-20.556,10.82-41.228,11.073-46.958l-96.009-0.591c-0.288,0-0.556-0.08-0.786-0.217l-6.525,0.114l-7.881-0.115
					c-0.246,0.164-0.536,0.255-0.836,0.263L11.9,28.288c0.265,5.657,1.841,26.025,11.039,46.299
					C37.28,106.191,62.4,122.618,97.6,123.394C97.7,123.396,97.802,123.405,97.901,123.428z"/>
			</g>
			<path style="fill:#DEDFDA;" d="M124.272,25.646c-1.701,12.188,13.537,79.729-26.143,85.595
				c-34.67,5.126-65.331-18.131-81.2-47.845c9.027,27.437,30.335,60.441,80.634,61.55l0.006,0.036h17.678
				C203.02,123.986,203.6,25.96,203.6,25.96L124.272,25.646z"/>
			<g>
				<path style="fill:#FFFEF7;" d="M203.764,27.011c0,10.013-43.321,18.135-96.763,18.135c-53.437,0-96.758-8.122-96.758-18.135
					c0-10.016,43.321-18.136,96.758-18.136C160.442,8.875,203.764,16.995,203.764,27.011z"/>
				<path style="fill:#5C2F10;" d="M107.001,46.697c-47.66,0-98.313-6.9-98.313-19.687c0-12.788,50.653-19.689,98.313-19.689
					c47.662,0,98.318,6.901,98.318,19.689C205.319,39.797,154.663,46.697,107.001,46.697z M107.001,10.429
					c-56.104,0-95.205,8.739-95.205,16.582c0,7.84,39.101,16.579,95.205,16.579c56.11,0,95.211-8.739,95.211-16.579
					C202.212,19.168,163.111,10.429,107.001,10.429z"/>
			</g>
			<g>
				<path style="fill:#FFFEF7;" d="M197.908,26.714c0,7.526-40.243,13.627-89.89,13.627c-49.646,0-89.89-6.101-89.89-13.627
					c0-7.524,40.244-13.622,89.89-13.622C157.665,13.092,197.908,19.19,197.908,26.714z"/>
				<path style="fill:#5C2F10;" d="M108.019,41.896c-36.758,0-91.443-4.045-91.443-15.183c0-11.135,54.686-15.178,91.443-15.178
					c36.759,0,91.445,4.043,91.445,15.178C199.464,37.852,144.777,41.896,108.019,41.896z M108.019,14.646
					c-54.729,0-88.335,7.026-88.335,12.068c0,5.039,33.605,12.073,88.335,12.073s88.338-7.034,88.338-12.073
					C196.357,21.672,162.748,14.646,108.019,14.646z"/>
			</g>
		</g>
	</g>
</g>
</svg>
