<?xml version="1.0" encoding="utf-8"?>
<!-- Generator: Adobe Illustrator 27.5.0, SVG Export Plug-In . SVG Version: 6.00 Build 0)  -->
<svg version="1.1" id="Capa_1" xmlns="http://www.w3.org/2000/svg" xmlns:xlink="http://www.w3.org/1999/xlink" x="0px" y="0px"
	 viewBox="0 0 2322 1939" style="enable-background:new 0 0 2322 1939;" xml:space="preserve">
<path style="fill:#B8A8AA;" d="M2146.343,785.043c-30.567-106.048-90.289-218.225-213.689-274.717
	c-97.245-44.519-177.543,1.261-236.285,64.646v-52.289h-482.061v-32.586c0-5.169-18.469-1.873-18.469,4.949v27.637h-429.91
	c12.177-4.553,24.082-9.695,35.39-16.146c57.795-32.97,92.469-95.68,112.873-159.011c20.404-63.331,29.451-129.997,51.674-192.713
	c-108.424,32.423-221.695,67.674-301.337,148.074c-84.726,78.245-90.443,160.735-77.983,219.795h-6.424
	c1.075-59.392-19.864-136.113-112.162-197.383c-91.408-66.72-208.841-83.521-321.041-98.299
	c31.908,58.386,51.436,122.768,81.647,182.051c23.508,46.13,55.536,90.439,97.922,118.872v537.579
	c0,265.594,151.174,495.87,372.163,609.503l-0.004-0.002v35.915c0,40.634,32.941,73.574,73.574,73.574h478.416
	c40.634,0,73.574-32.941,73.574-73.574v-35.915l-0.004,0.002c143.675-73.878,257.807-197.074,320.102-347.214
	c58.384,89.648,158.175,191.848,288.345,132.256c123.4-56.493,183.122-168.67,213.689-274.717
	C2183.504,1056.406,2183.504,913.968,2146.343,785.043z M2074.654,1122.396c-26.656,72.702-78.738,149.606-186.35,188.334
	c-91.942,33.089-166.495-6.592-218.571-55.522c17.33-60.245,26.636-123.887,26.636-189.707V692.706
	c49.689-37.276,114.669-60.87,191.935-33.064c107.612,38.729,159.694,115.633,186.352,188.335
	C2107.062,936.362,2107.062,1034.012,2074.654,1122.396z"/>
<g>
	<g>
		<path style="fill:#9A873C;" d="M326.487,522.682h253.634c1.075-59.392-19.864-136.113-112.162-197.383
			c-91.408-66.72-208.841-83.521-321.041-98.299c31.908,58.386,51.436,122.768,81.647,182.051
			c23.508,46.13,55.536,90.439,97.922,118.872V522.682z"/>
		<path style="fill:#897835;" d="M517.048,522.682h63.073c1.075-59.392-19.864-136.113-112.162-197.383
			c-90.292-65.906-205.976-83.101-316.926-97.755c35.688,48.758,93.149,81.826,146.831,112.723
			c59.606,34.308,118.962,70.604,167.752,119.075C484.863,478.464,502.383,499.746,517.048,522.682z"/>
		<path style="fill:#7D6F2F;" d="M532.441,522.682h34.944c-3.82-46.266-17.563-91.722-40.476-132.133
			c-8.063-14.221-21.397-24.907-37.135-29.331c-2.405-0.676-4.957-1.12-7.355-0.454c-3.654,1.014-6.123,4.323-8.306,7.423
			c-11.022,15.649-22.044,31.3-33.065,46.95c-0.242,0.344-0.168,0.812,0.167,1.065C478.81,444.588,509.98,481.285,532.441,522.682z"
			/>
		<path style="fill:#716429;" d="M508.552,433.794c7.509,5.78,15.962,10.191,23.921,15.331c2.814,1.816,5.693,3.872,7.096,6.913
			c1.402,3.041,0.678,7.314-2.354,8.736c-5.837,2.736-14.11-6.425-18.087-1.354c-1.664,2.122-0.776,5.212,0.333,7.67
			c8.579,19.003,25.836,33.142,35.141,51.593h12.782c-3.82-46.266-17.563-91.722-40.476-132.133
			c-8.063-14.221-21.397-24.907-37.135-29.331c-2.187-0.615-4.491-0.994-6.694-0.565c-5.522,5.57-6.244,15.63-4.705,23.877
			C481.986,403.889,492.949,421.783,508.552,433.794z"/>
		<path style="fill:#716429;" d="M471.025,400.763c-5.259,2.567-9.181,7.714-10.259,13.466l5.865,5.104
			c3.889,5.538,10.36,9.178,17.112,9.625c1.473,0.098,3.246-0.119,3.916-1.434c0.609-1.198-0.047-2.625-0.695-3.803
			c-3.89-7.077-7.78-14.153-11.669-21.23c-0.521-0.948-1.175-1.996-2.24-2.191C472.36,400.172,471.66,400.453,471.025,400.763z"/>
		<path style="fill:#7D6F2F;" d="M355.335,280.323c-1.391-0.393-2.912-0.77-4.242-0.206c-1.108,0.469-1.857,1.501-2.549,2.486
			c-4.225,6.014-8.449,12.028-12.673,18.041c-4.968,7.072-10.178,15.087-8.943,23.641c1.522,10.533,11.944,17.06,21.302,22.13
			c16.579,8.984,33.159,17.967,49.739,26.95c14.529,7.872,29.503,16.117,39.558,29.231l4.465-9.817
			c11.308-14.095,22.615-28.189,33.922-42.283c0.987-1.23,2.034-2.683,1.74-4.231c-0.234-1.231-1.256-2.137-2.223-2.935
			C440.342,314.31,399.154,292.701,355.335,280.323z"/>
		<path style="fill:#716429;" d="M355.335,280.323c-1.391-0.392-2.912-0.77-4.242-0.206c-0.039,0.016-0.063,0.056-0.1,0.074
			c0.438,0.823,1.014,1.599,1.593,2.327c3.777,4.741,8.055,9.085,12.739,12.934c-1.912,3.135-6.082,4.685-9.577,3.559
			c16.115,18.66,37.307,32.891,60.678,40.746c6.956,2.337,14.599,4.453,19.074,10.27c4.474,5.816,2.69,16.614-4.58,17.608
			c-4.865,0.664-11.602-2.48-13.659,1.979c-0.363,4.684,1.95,9.483,5.838,12.118l-6.046,2.736
			c7.725,5.059,14.873,10.826,20.473,18.13l4.466-9.818c11.307-14.095,22.615-28.189,33.922-42.283
			c0.987-1.23,2.034-2.683,1.74-4.231c-0.233-1.231-1.256-2.137-2.222-2.935C440.342,314.31,399.154,292.702,355.335,280.323z"/>
		<path style="fill:#716429;" d="M293.676,258.934c-12.964-1.107-26.042-0.115-39.003-1.264c-6.739-0.597-13.412-1.77-20.076-2.943
			c-14.213-2.5-28.425-5-42.638-7.5c34.288,24.539,70.787,45.987,108.909,64.002l11.684-13.683
			c5.769-4.719,11.235-9.807,16.355-15.223c1.83-1.936,3.752-4.448,2.984-6.999c-0.37-1.231-1.316-2.193-2.269-3.055
			C319.969,263.545,306.641,260.041,293.676,258.934z"/>
		<g>
			<path style="fill:#A9975A;" d="M472.534,522.682c-6.038-5.182-12.846-9.646-20.57-9.504c-5.705,0.104-10.66,4.613-12.251,9.504
				H472.534z"/>
			<path style="fill:#A9975A;" d="M326.487,522.682h96.239c-3.328-4.165-5.864-9.163-7.304-14.019
				c-3.625-12.221-4.261-25.867-12.825-35.751c5.007,10.737-3.528,24.735-15.639,24.754c-12.111,0.019-21.876-15.153-15.514-24.745
				c-7.281,7.817-21.31,7.444-30.577,1.084c-9.268-6.361-14.237-17.192-15.89-27.822c-1.595-10.256-4.194-24.503-14.989-24.684
				c-5.462-0.092-9.819,4.171-15.181,4.958c-7.39,1.085-14.471-4.825-17.682-11.455c-3.21-6.631-3.754-14.023-5.72-21.04
				c-7.62-27.198-34.684-44.954-55.264-65.54c-17.632-17.638-31.243-38.497-47.521-57.272c20.491,45.7,37.19,93.246,59.946,137.901
				c23.508,46.13,55.536,90.439,97.922,118.872V522.682z"/>
		</g>
		<path style="fill:#A9975A;" d="M208.031,302.194c1.437,5.94,6.132,10.438,10.464,14.749
			c13.154,13.094,24.842,27.659,34.777,43.337l3.923-2.732c4.04,6.037,10.237,10.598,17.203,12.662
			c4.769-5.802-0.303-14.278-5.238-19.939c-5.25-6.022-10.5-12.045-15.75-18.067c-5.575-6.394-11.199-12.836-17.94-17.985
			C227.459,308.098,217.962,303.936,208.031,302.194z"/>
		<path style="fill:#A9975A;" d="M278.182,356.94c2.906,4.601,8.582,7.456,13.861,10.221c16.03,8.399,31.023,18.257,44.612,29.329
			l3.082-2.917c5.44,4.226,12.58,6.87,19.821,7.34c3.112-5.573-3.946-11.612-10.152-15.374c-6.601-4.002-13.203-8.005-19.804-12.008
			c-7.009-4.25-14.079-8.53-21.894-11.56C298.419,358.369,288.199,356.628,278.182,356.94z"/>
		<path style="fill:#A9975A;" d="M327.605,414.088c2.297,3.256,4.67,6.701,5.097,10.663c0.194,1.806-0.026,3.674,0.496,5.415
			c0.979,3.267,4.226,5.21,7.154,6.958c13.637,8.142,25.72,18.6,37.724,29l1.078-0.142c2.952-1.733,5.598-3.984,7.781-6.62
			c0.635-0.765,1.251-1.609,1.399-2.592c0.203-1.347-0.51-2.656-1.299-3.766c-4.388-6.166-11.556-9.577-17.908-13.692
			C355.406,430.425,343.693,416.984,327.605,414.088z"/>
		<path style="fill:#A9975A;" d="M405.535,448.78c-1.9,0.11-3.871,1.475-3.97,3.376c-0.202,3.844,5.958,4.32,8.013,7.574
			l11.007,4.277c20.559,10.555,30.989,35.282,51.726,45.482c0.827,0.407,1.798,0.792,2.641,0.419
			c0.646-0.285,1.034-0.942,1.378-1.558c1.379-2.467,2.759-4.934,4.138-7.401c0.572-1.025,1.164-2.136,1.035-3.302
			c-0.142-1.279-1.11-2.29-2.035-3.184c-19.627-18.967-43.753-32.639-68.489-44.176C409.253,449.483,407.435,448.67,405.535,448.78z
			"/>
		<path style="fill:#BCAD7D;" d="M326.487,522.682h45.028c0.762-1.499,2.003-2.911,2.314-4.58c0.702-3.773-3.553-6.423-7.161-7.734
			c-12.089-4.392-24.815-7.028-37.654-7.798c-5.396-0.323-12.816-2.577-11.84-7.894c0.822-4.478,6.89-5.165,11.426-4.768
			c9.859,0.862,19.719,1.724,29.578,2.587c-11.777-11.561-27.012-19.554-43.218-22.673c-6.732-1.296-14.384-2.192-18.56-7.629
			c-3.439-4.477-3.965-11.473-9.035-13.957c-6.106-2.992-14.461,3.03-19.826-1.146c-2.671-2.08-3.25-5.816-3.63-9.18
			c-0.864-7.66-1.729-15.318-2.594-22.978c-0.264-2.342-0.637-4.903-2.387-6.481c-2.266-2.044-5.757-1.553-8.723-2.271
			c-7.8-1.888-10.544-11.313-12.396-19.122c-1.853-7.809-6.198-17.117-14.224-17.067c-1.875,0.012-3.883,0.559-5.54-0.318
			c-1.784-0.942-2.421-3.136-2.886-5.099l-5.416-22.848c-1.075-4.533-2.248-9.263-5.322-12.763
			c-3.07-3.496-8.669-5.244-12.477-2.577c11.445,27.913,22.935,55.811,36.619,82.663c23.508,46.13,55.536,90.439,97.922,118.872
			V522.682z"/>
		<g>
			<path style="fill:#BCAD7D;" d="M230.243,352.513c-2.712,0.266-5.043,3.543-3.527,5.807l2.372,2.979
				c0.782,1.939,1.888,3.832,3.61,5.016c1.723,1.183,4.169,1.492,5.886,0.301c1.674-1.162,2.264-3.472,1.842-5.466
				c-0.422-1.994-1.681-3.71-3.089-5.183C235.455,353.997,232.954,352.248,230.243,352.513z"/>
			<path style="fill:#BCAD7D;" d="M250.592,390.626l2.353,5.361c1.495,1.125,3.061,2.282,4.898,2.63
				c1.839,0.349,4.026-0.381,4.727-2.115c0.723-1.786-0.336-3.752-1.357-5.386c-1.052-1.683-2.14-3.406-3.728-4.598
				c-1.587-1.192-3.809-1.753-5.588-0.872C250.118,386.526,249.27,389.145,250.592,390.626z"/>
			<path style="fill:#BCAD7D;" d="M298.599,439.981l-2.264,3.684c4.518,2.387,10.193,2.437,14.753,0.131
				c1.566-0.792,3.088-1.96,3.612-3.635c0.677-2.163-0.613-4.608-2.574-5.745c-1.962-1.137-4.404-1.159-6.605-0.62
				C302.347,434.572,299.246,436.779,298.599,439.981z"/>
			<path style="fill:#BCAD7D;" d="M405.502,510.598c-0.817-3.346-5.239-3.972-8.682-3.896c-1.574,0.034-3.262,0.107-4.521,1.052
				c-1.259,0.945-1.692,3.111-0.422,4.04l3.717,5.397c2.3-0.007,4.692-0.033,6.759-1.043
				C404.421,515.138,406.049,512.832,405.502,510.598z"/>
		</g>
	</g>
	<g>
		<path style="fill:#9A873C;" d="M765.929,522.682c12.177-4.553,24.082-9.695,35.39-16.146
			c57.795-32.97,92.469-95.68,112.873-159.011c20.404-63.331,29.451-129.997,51.674-192.713
			c-108.424,32.423-221.695,67.674-301.337,148.074c-84.726,78.245-90.443,160.735-77.983,219.795H765.929z"/>
		<path style="fill:#897835;" d="M640.559,522.682c11.485-31.246,28.013-60.928,47.588-87.828
			c40.466-55.608,93.298-100.878,146.694-144.223c48.088-39.037,99.564-80.817,127.048-134.628
			c-107.211,32.101-218.691,67.465-297.362,146.883c-84.726,78.245-90.443,160.735-77.983,219.795H640.559z"/>
		<path style="fill:#7D6F2F;" d="M627.438,522.682c14.999-50.041,41.774-96.582,77.942-134.298c0.291-0.303,0.289-0.778-0.004-1.078
			c-13.369-13.699-26.738-27.4-40.107-41.098c-2.648-2.714-5.612-5.588-9.38-6.009c-2.473-0.276-4.922,0.567-7.189,1.617
			c-14.835,6.869-26.302,19.539-32.002,34.861c-17.264,46.403-23.311,96.805-18.098,146.005H627.438z"/>
		<path style="fill:#716429;" d="M607.904,522.682c0.133-1.577,0.349-3.147,0.659-4.666c4.625-22.64,22.249-40.701,28.288-63.006
			c0.705-2.603,1.091-5.795-0.889-7.625c-4.733-4.375-11.445,5.984-17.642,4.211c-3.22-0.921-4.614-5.025-3.713-8.25
			c0.901-3.226,3.419-5.712,5.907-7.952c7.042-6.34,14.687-12.038,21.18-18.938c13.497-14.339,21.475-33.748,21.965-53.434
			c0.209-8.386-2.103-18.204-8.44-22.826c-2.243-0.073-4.457,0.667-6.519,1.621c-14.835,6.869-26.301,19.539-32.002,34.861
			c-17.264,46.403-23.311,96.805-18.099,146.005H607.904z"/>
		<path style="fill:#716429;" d="M673.495,377.879c5.6,1.699,10.291,6.157,12.27,11.665l-4.979,5.971
			c-2.959,6.086-8.77,10.708-15.365,12.222c-1.438,0.331-3.223,0.399-4.093-0.793c-0.792-1.086-0.371-2.599,0.082-3.865
			c2.715-7.605,5.431-15.21,8.147-22.815c0.363-1.018,0.843-2.157,1.862-2.519C672.084,377.508,672.82,377.674,673.495,377.879z"/>
		<path style="fill:#7D6F2F;" d="M768.573,240.583c1.31-0.609,2.753-1.223,4.156-0.878c1.168,0.288,2.072,1.187,2.912,2.049
			c5.127,5.266,10.253,10.532,15.379,15.798c6.029,6.193,12.447,13.277,12.587,21.919c0.172,10.642-9.081,18.742-17.514,25.235
			c-14.941,11.504-29.882,23.008-44.823,34.512c-13.093,10.082-26.567,20.602-34.409,35.147l-5.969-8.983
			c-13.404-12.118-26.808-24.236-40.212-36.354c-1.169-1.058-2.434-2.326-2.39-3.901c0.035-1.253,0.901-2.31,1.728-3.251
			C690.048,287.649,727.278,259.768,768.573,240.583z"/>
		<path style="fill:#716429;" d="M768.573,240.583c1.31-0.609,2.752-1.223,4.156-0.878c0.041,0.01,0.07,0.045,0.111,0.057
			c-0.302,0.883-0.747,1.74-1.203,2.55c-2.976,5.282-6.509,10.25-10.521,14.795c2.385,2.791,6.749,3.659,10.021,1.991
			c-12.944,20.984-31.606,38.403-53.43,49.872c-6.496,3.413-13.706,6.717-17.2,13.172c-3.493,6.453-0.015,16.831,7.321,16.656
			c4.909-0.117,11.061-4.293,13.8-0.217c1.102,4.566-0.418,9.672-3.838,12.892l6.404,1.741
			c-6.823,6.223-12.964,13.052-17.332,21.153l-5.969-8.983c-13.404-12.119-26.808-24.237-40.211-36.354
			c-1.17-1.058-2.435-2.326-2.391-3.902c0.035-1.253,0.901-2.309,1.727-3.251C690.047,287.649,727.278,259.768,768.573,240.583z"/>
		<path style="fill:#716429;" d="M826.048,209.665c12.624-3.153,25.693-4.252,38.307-7.447c6.558-1.661,12.96-3.88,19.352-6.096
			c13.635-4.728,27.269-9.455,40.904-14.182c-29.952,29.677-62.578,56.654-97.352,80.498l-13.71-11.652
			c-6.445-3.742-12.65-7.896-18.566-12.429c-2.114-1.62-4.411-3.795-4.058-6.436c0.17-1.274,0.95-2.374,1.755-3.377
			C800.823,218.397,813.425,212.819,826.048,209.665z"/>
		<path style="fill:#A9975A;" d="M765.929,522.682c12.177-4.553,24.082-9.695,35.39-16.146
			c57.795-32.97,92.469-95.68,112.873-159.011c15.369-47.704,24.299-97.3,37.266-145.675
			c-13.087,21.123-23.209,43.881-37.814,64.097c-17.046,23.595-40.945,45.427-44.145,73.491c-0.826,7.24-0.188,14.625-2.304,21.681
			c-2.116,7.056-8.167,14.017-15.636,14.12c-5.418,0.075-10.397-3.441-15.776-2.482c-10.629,1.894-10.931,16.374-10.875,26.752
			c0.057,10.758-3.127,22.242-11.267,29.995c-8.139,7.752-21.93,10.35-30.361,3.789c7.805,8.458,0.576,24.99-11.384,26.896
			c-11.96,1.907-22.612-10.557-19.375-21.953c-6.884,11.119-5.344,24.693-6.98,37.336c-1.637,12.642-9.879,27.351-22.936,27.639
			c6.917-6.999-2.731-18.752-12.424-17.373c-9.693,1.378-16.779,9.811-22.755,17.57c-4.609,5.983-9.3,12.481-12.212,19.277H765.929z
			"/>
		<path style="fill:#A9975A;" d="M917.481,238.764c-0.475,6.093-4.395,11.28-7.986,16.225
			c-10.906,15.018-20.131,31.256-27.448,48.314l-4.307-2.074c-3.03,6.603-8.423,12.091-14.972,15.236
			c-5.631-4.97-1.97-14.145,2.003-20.519c4.226-6.78,8.452-13.56,12.678-20.34c4.487-7.199,9.017-14.452,14.853-20.608
			C899.238,247.681,907.953,242.062,917.481,238.764z"/>
		<path style="fill:#A9975A;" d="M856.922,303.963c-2.138,5.004-7.288,8.725-12.06,12.295
			c-14.491,10.84-27.728,22.955-39.383,36.047l-3.507-2.39c-4.699,5.037-11.328,8.782-18.403,10.397
			c-3.958-5.007,2.05-12.091,7.58-16.792c5.881-5.001,11.763-10.002,17.644-15.004c6.245-5.31,12.545-10.659,19.779-14.893
			C837.17,308.591,846.983,305.247,856.922,303.963z"/>
		<path style="fill:#A9975A;" d="M817.211,368.24c-1.751,3.579-3.545,7.358-3.337,11.337c0.095,1.815,0.609,3.623,0.371,5.426
			c-0.448,3.38-3.344,5.815-5.957,8.006c-12.169,10.206-22.436,22.452-32.635,34.628l-1.087,0.031
			c-3.19-1.242-6.16-3.044-8.735-5.299c-0.749-0.655-1.491-1.39-1.793-2.337c-0.414-1.298,0.081-2.703,0.685-3.924
			c3.352-6.785,9.886-11.292,15.503-16.363C792.359,388.788,801.787,373.657,817.211,368.24z"/>
		<path style="fill:#A9975A;" d="M745.785,414.877c1.894-0.193,4.057,0.841,4.457,2.702c0.81,3.763-5.195,5.211-6.707,8.752
			l-10.188,5.972c-18.619,13.689-24.986,39.759-43.839,53.125c-0.752,0.533-1.649,1.067-2.541,0.834
			c-0.683-0.179-1.17-0.766-1.608-1.32c-1.754-2.216-3.508-4.433-5.261-6.649c-0.728-0.92-1.489-1.924-1.547-3.096
			c-0.063-1.285,0.732-2.438,1.503-3.467c16.363-21.846,38.009-39.178,60.598-54.5C742.226,416.162,743.892,415.071,745.785,414.877
			z"/>
		<path style="fill:#BCAD7D;" d="M785.14,489.983c-25.971,4.81-50.667,16.192-71.284,32.699h52.073
			c12.177-4.553,24.082-9.695,35.39-16.146c57.795-32.97,92.469-95.68,112.873-159.011c9.242-28.685,16.152-58.056,23.015-87.432
			c-4.184-2.028-9.434,0.586-11.909,4.526c-2.479,3.945-2.885,8.801-3.226,13.447l-1.716,23.418
			c-0.147,2.012-0.428,4.28-2.039,5.493c-1.498,1.129-3.567,0.907-5.419,1.194c-7.931,1.227-10.742,11.107-11.331,19.112
			c-0.588,8.004-1.798,17.745-9.2,20.848c-2.814,1.18-6.338,1.25-8.251,3.628c-1.477,1.837-1.437,4.424-1.326,6.779
			c0.364,7.699,0.728,15.398,1.091,23.097c0.16,3.382,0.182,7.162-2.125,9.64c-4.633,4.977-13.839,0.359-19.392,4.283
			c-4.61,3.257-4.018,10.249-6.701,15.215c-3.259,6.032-10.672,8.133-17.112,10.482c-15.504,5.655-29.275,15.968-39.065,29.254
			c9.597-2.419,19.194-4.837,28.791-7.256c4.415-1.112,10.515-1.399,12.039,2.892c1.808,5.094-5.16,8.498-10.435,9.675
			c-12.554,2.801-24.699,7.426-35.936,13.683c-3.353,1.868-7.133,5.16-5.841,8.774c0.864,2.413,3.823,3.875,3.993,6.433
			C792.31,487.907,788.288,489.4,785.14,489.983z"/>
		<g>
			<path style="fill:#BCAD7D;" d="M903.548,291.974c2.719-0.169,5.542,2.696,4.406,5.173l-1.87,3.318
				c-0.463,2.038-1.254,4.084-2.766,5.526c-1.512,1.443-3.879,2.136-5.764,1.233c-1.838-0.881-2.787-3.068-2.688-5.104
				c0.1-2.036,1.07-3.93,2.226-5.608C898.639,294.267,900.829,292.142,903.548,291.974z"/>
			<path style="fill:#BCAD7D;" d="M889.516,332.836l-1.471,5.667c-1.297,1.348-2.659,2.739-4.418,3.375
				c-1.76,0.636-4.034,0.264-5.002-1.337c-0.998-1.649-0.265-3.758,0.483-5.533c0.772-1.829,1.572-3.703,2.95-5.133
				c1.378-1.429,3.482-2.335,5.378-1.749C889.332,328.713,890.586,331.164,889.516,332.836z"/>
			<path style="fill:#BCAD7D;" d="M849.963,389.194l2.821,3.277c-4.081,3.074-9.677,4.026-14.544,2.474
				c-1.672-0.533-3.36-1.444-4.145-3.015c-1.012-2.028-0.127-4.647,1.628-6.081c1.756-1.435,4.163-1.845,6.423-1.663
				C845.403,384.449,848.815,386.135,849.963,389.194z"/>
			<path style="fill:#BCAD7D;" d="M755.642,475.904c0.275-3.433,4.541-4.753,7.953-5.226c1.559-0.216,3.238-0.413,4.63,0.32
				c1.393,0.734,2.165,2.803,1.059,3.922l-2.812,5.919c-2.272,0.359-4.637,0.714-6.839,0.045
				C757.432,480.214,755.459,478.197,755.642,475.904z"/>
			<path style="fill:#BCAD7D;" d="M705.285,509.701l-2.287,5.689c-2.743-0.026-5.413,1.043-8.155,0.971
				c-2.742-0.072-5.842-2.036-5.547-4.763c0.195-1.802,1.763-3.098,3.21-4.19c2.402-1.813,5.053-3.711,8.062-3.652
				C703.576,503.815,706.589,506.989,705.285,509.701z"/>
		</g>
	</g>
	<path style="fill:#B8A8AA;" d="M1214.309,522.682v-32.586c0-5.169-18.469-1.873-18.469,4.949v27.637H326.487v542.82
		c0,378.283,306.658,684.941,684.941,684.941h0.001c378.282,0,684.941-306.658,684.941-684.941v-542.82H1214.309z"/>
	<g>
		<path style="fill:#C1B0B2;" d="M1038,1002.978c27.494-27.494,42.909-42.909,70.404-70.403h87.435V522.682H326.487v542.82
			c0,63.919,8.944,125.716,25.321,184.411c108.677,67.632,247.943,73.109,371.594,39.329
			c114.033-31.151,217.13-92.358,314.598-159.767V1002.978z"/>
		<path style="fill:#C1B0B2;" d="M1394.608,522.682h-180.3v409.893h45.514c60.174-78.931,104.33-170.401,135.799-264.891
			c8.521-25.586,16.257-52.009,15.517-78.968C1410.514,565.89,1403.774,543.617,1394.608,522.682z"/>
	</g>
	<path style="fill:#B8A8AA;" d="M2146.343,785.043c-30.567-106.048-90.289-218.225-213.689-274.717
		c-97.245-44.519-177.543,1.261-236.285,64.646v117.734c49.689-37.276,114.669-60.87,191.935-33.064
		c107.612,38.729,159.694,115.633,186.352,188.335c32.406,88.385,32.406,186.035-0.002,274.419
		c-26.656,72.702-78.738,149.606-186.35,188.334c-91.942,33.089-166.495-6.592-218.571-55.522
		c-7.135,24.803-15.648,49.02-25.424,72.583c58.384,89.648,158.175,191.848,288.345,132.256
		c123.4-56.493,183.122-168.67,213.689-274.717C2183.504,1056.406,2183.504,913.968,2146.343,785.043z"/>
	<g>
		<path style="fill:#968A8C;" d="M1794.548,536.212c-1.334-9.647-4.391-19.282-8.678-28.378
			c-33.744,14.895-63.693,39.363-89.5,67.209v117.814c25.125-18.831,54.14-34.196,86.71-41.181
			C1788.823,613.073,1799.868,574.701,1794.548,536.212z"/>
		<path style="fill:#968A8C;" d="M1669.746,1255.164c-7.134,24.81-15.649,49.033-25.426,72.601
			c23.402,35.928,53.435,73.868,89.432,102.61c12.083-38.218,21.012-77.636,29.262-117.024
			C1726.811,1301.37,1695.537,1279.394,1669.746,1255.164z"/>
	</g>
	<path style="fill:#918588;" d="M1011.429,1750.442L1011.429,1750.442c-112.691,0-219.019-27.225-312.783-75.439v35.915
		c0,40.634,32.941,73.574,73.574,73.574h478.416c40.634,0,73.574-32.941,73.574-73.574v-35.915
		C1230.447,1723.218,1124.119,1750.442,1011.429,1750.442z"/>
	<path style="fill:#AD9EA1;" d="M1682.338,522.682c-5.215,4.182-10.258,8.543-14.986,13.161
		c-45.158,44.105-71.586,103.399-97.482,160.964c-57.568,127.979-119.827,257.585-197.724,374.149v242.793
		c-27.494,27.495-42.908,42.909-70.403,70.404h-193.34l-21.479-21.479c-148.404,95.793-324.362,144.515-499.902,169.545
		c-20.633,2.944-43.077,6.943-63.078,14.299c124.197,125.856,296.697,203.925,487.483,203.925h0.002
		c378.283,0,684.94-306.657,684.94-684.94v-542.82H1682.338z"/>
	<path style="fill:#A19396;" d="M1696.369,1065.502V739.935c-7.696,12.669-14.825,25.743-21.856,38.747
		c-73.261,135.511-146.521,271.023-219.781,406.535c-47.204,87.316-96.028,176.68-171.178,241.524
		c-81.95,70.711-188.809,106.277-295.446,124.856c-106.636,18.578-215.362,21.793-322.562,36.774
		c-24.642,3.443-49.814,7.798-71.4,20.078c115.546,88.966,260.177,141.993,417.28,141.993h0.002
		C1389.712,1750.442,1696.369,1443.785,1696.369,1065.502z"/>
	<g>
		<g>
			<path style="fill:#968A8C;" d="M1293.955,1559.338c-0.938-5.911-7.433-9.645-13.418-9.507c-5.985,0.137-11.485,3.16-16.596,6.276
				c-15.599,9.507-30.162,20.61-45.434,30.634c-50.704,33.278-109.317,54.414-169.59,61.153l6.3,9.181
				c-6.757,0.108-13.831,0.297-19.729,3.594c-5.898,3.299-10.042,10.793-7.28,16.96c1.794,4.006,5.909,6.423,9.95,8.139
				c19.517,8.287,41.792,6.043,62.634,2.144c75.147-14.057,149.995-51.264,189.498-116.716
				C1292.476,1567.577,1294.618,1563.513,1293.955,1559.338z"/>
		</g>
		<g>
			<path style="fill:#968A8C;" d="M1537.399,1453.024c-0.749-5.758-7.892-8.804-13.526-7.395c-5.632,1.409-9.954,5.8-13.94,10.022
				c-44.043,46.664-86.711,97-143.567,126.746l-10.216,16.949c-1.001,6.137,4.789,11.741,10.927,12.746
				c6.137,1.006,12.295-1.335,17.956-3.909c44.06-20.035,78.593-55.996,110.982-91.962c15.343-17.037,30.719-34.658,39.749-55.73
				C1536.782,1458.119,1537.731,1455.582,1537.399,1453.024z"/>
		</g>
		<g>
			<path style="fill:#968A8C;" d="M1619.772,1169.573c-2.382-6.42-9.991-11.408-16.17-8.455c-4.097,1.958-6.151,6.514-7.88,10.714
				c-18.779,45.618-37.557,91.235-56.336,136.853c-7.383,17.937-14.894,36.099-26.623,51.547l-8.635,8.461
				c-9.248,12.486-12.351,29.312-8.167,44.275c0.745,2.662,1.806,5.407,3.985,7.108c4.411,3.441,10.821,1.045,15.698-1.698
				c34.513-19.409,61.44-51.924,74.078-89.448c4.346-12.907,7.046-26.3,9.733-39.651c6.674-33.147,13.347-66.295,20.021-99.442
				C1620.829,1183.122,1622.154,1175.994,1619.772,1169.573z"/>
		</g>
	</g>
	<g>
		<path style="fill:#9A873C;" d="M1301.743,932.575h-87.435v77.759c0,6.822-18.469,10.117-18.469,4.949v-82.708h-87.435
			c-27.494,27.494-42.91,42.909-70.404,70.403L1038,1313.749l70.404,70.404h193.34c27.495-27.494,42.909-42.909,70.403-70.404
			v-310.771L1301.743,932.575z"/>
		<path style="fill:#A9975A;" d="M1283.843,974.382h-69.535v35.952c0,6.822-18.469,10.117-18.469,4.949v-40.901h-69.536
			l-57.366,57.368v94.184h272.276v-94.184L1283.843,974.382z"/>
		<path style="fill:#897835;" d="M1301.743,1384.153l70.403-70.404v-203.531c-1.596,1.034-3.13,2.161-4.506,3.344
			c-54.419,46.793-46.195,132.619-71.236,199.185c-2.882,7.656-9.869,13.525-18.048,13.373
			c-11.606-0.216-15.732-11.916-17.182-21.928c-2.853-19.704-1.482-39.835-4.322-59.541c-2.839-19.706-10.91-40.058-27.602-50.912
			c-43.399,23.665-22.581,71.35-33.873,107.025c-2.878,9.093-9.577,16.794-18.612,19.846c-17.189,5.807-27.026-7.513-32.661-20.189
			c-14.604-32.86-14.574-70.503-27.143-104.194c-5.154-13.814-13.475-28.068-33.583-25.841
			c-10.139,1.122-19.317,6.389-26.662,13.467c-6.638,6.396-12.852,13.21-18.717,20.31v109.587l70.403,70.404H1301.743z"/>
		<path style="fill:#897835;" d="M1301.743,1384.153l70.403-70.404v-203.531c-1.596,1.034-3.13,2.161-4.506,3.344
			c-54.419,46.793-46.195,132.619-71.236,199.185c-2.882,7.656-9.869,13.525-18.048,13.373
			c-11.606-0.216-15.732-11.916-17.182-21.928c-2.853-19.704-1.482-39.835-4.322-59.541c-2.839-19.706-10.91-40.058-27.602-50.912
			c-43.399,23.665-22.581,71.35-33.873,107.025c-2.878,9.093-9.577,16.794-18.612,19.846c-17.189,5.807-27.026-7.513-32.661-20.189
			c-14.604-32.86-14.574-70.503-27.143-104.194c-5.154-13.814-13.475-28.068-33.583-25.841
			c-10.139,1.122-19.317,6.389-26.662,13.467c-6.638,6.396-12.852,13.21-18.717,20.31v109.587l70.403,70.404H1301.743z"/>
		<path style="fill:#7D6F2F;" d="M1301.743,1384.153l70.403-70.404v-135.012c-23.018,24.883-40.216,55.127-49.624,87.694
			c-5.743,19.876-8.929,41.174-20.834,58.095c-15.793,22.447-46.752,30.893-72.886,23.835c-15.146-4.091-31.632-3.387-44.985,4.847
			c-7.955,4.905-17.563,7.467-26.911,7.045c-44.277-1.996-67.049-53.433-89.928-89.743c-3.375-5.356-7.869-10.055-13.48-12.986
			c-5.382-2.811-10.572-3.557-15.497-2.846v59.07l70.403,70.404H1301.743z"/>
	</g>
	<g>
		<path style="fill:#696163;" d="M1214.309,1010.334c0-135.478,0-270.957,0-406.435c0-37.934,0-75.868,0-113.802
			c0-5.169-18.469-1.873-18.469,4.949c0,135.478,0,270.957,0,406.435c0,37.934,0,75.868,0,113.802
			C1195.839,1020.451,1214.309,1017.156,1214.309,1010.334L1214.309,1010.334z"/>
	</g>
	<path style="fill:#C6B6B8;" d="M1094.762,632.984c-20.18-50.416-76.503-76.563-129.972-86.054
		c-88.808-15.761-179.649,1.011-269.493,8.954c-80.081,7.079-160.787,7.098-240.871,0.058l-88.936,71.134
		c15.22,177.925,10.54,357.545-13.925,534.437c91.926,36.043,195.493,36.217,291.212,11.984
		c95.72-24.233,184.245-71.76,265.148-128.364c41.912-29.325,82.438-61.563,114.296-101.583
		c54.616-68.609,80.691-157.341,81.835-245.027C1104.343,676.314,1103.016,653.606,1094.762,632.984z"/>
	<path style="fill:#CCBDBF;" d="M695.297,555.885c-80.081,7.079-160.787,7.099-240.87,0.057l-88.938,71.135
		c13.316,155.644,11.399,312.583-5.665,467.863c65.94,10.043,134.48,5.016,199.357-11.409
		c94.214-23.851,181.348-70.632,260.977-126.345c41.252-28.865,81.142-60.594,112.498-99.984
		c53.758-67.531,79.423-154.868,80.549-241.174c0.255-19.615-0.814-39.613-6.896-58.179c-13.581-4.841-27.64-8.454-41.52-10.919
		C875.982,531.171,785.14,547.942,695.297,555.885z"/>
	<path style="fill:#D6CBCC;" d="M808.98,664.809c-15.717-23.189-38.194-41.793-63.79-53.041
		c-23.473-10.315-50.87-5.756-70.914,10.233l0,0c-5.147,4.106-10.814,7.541-16.893,10.072
		c-44.459,18.507-90.93,32.177-138.328,40.685c-6.734,1.208-13.846,2.475-19.049,6.915c-4.281,3.651-6.7,8.988-8.702,14.247
		c-16.577,43.55-12.485,94.469,10.832,134.816c23.317,40.345,65.396,69.309,111.408,76.687c39.42,6.321,79.79-2.551,117.486-15.703
		c31.179-10.882,62.75-25.852,82.04-52.655c10.246-14.235,16.421-31.092,19.87-48.288C841.44,746.408,833.225,700.58,808.98,664.809
		z"/>
	<path style="fill:#E3DBDC;" d="M731.603,712.22c-7.623-11.248-18.527-20.272-30.942-25.728
		c-11.386-5.004-24.675-2.792-34.397,4.964l0,0c-2.497,1.992-5.246,3.658-8.194,4.886c-21.566,8.977-44.106,15.607-67.097,19.735
		c-3.266,0.586-6.716,1.2-9.24,3.354c-2.076,1.771-3.25,4.36-4.221,6.911c-8.041,21.124-6.056,45.823,5.254,65.393
		c11.311,19.57,31.721,33.619,54.04,37.198c19.121,3.066,38.703-1.238,56.987-7.618c15.123-5.278,30.438-12.54,39.794-25.54
		c4.97-6.905,7.965-15.082,9.638-23.423C747.348,751.8,743.363,729.571,731.603,712.22z"/>
	<path style="fill:#E3DBDC;" d="M552.515,955.892c-5.001-7.379-12.153-13.297-20.297-16.877c-7.469-3.282-16.186-1.832-22.563,3.256
		l0,0c-1.638,1.306-3.441,2.4-5.375,3.204c-14.146,5.889-28.932,10.238-44.013,12.945c-2.143,0.384-4.406,0.788-6.061,2.2
		c-1.362,1.161-2.132,2.86-2.769,4.533c-5.274,13.857-3.972,30.059,3.447,42.896c7.419,12.837,20.808,22.053,35.448,24.4
		c12.543,2.011,25.388-0.812,37.382-4.996c9.921-3.463,19.966-8.226,26.104-16.754c3.26-4.53,5.225-9.893,6.322-15.365
		C562.843,981.855,560.229,967.273,552.515,955.892z"/>
	<path style="fill:#CCBDBF;" d="M1934.175,511.088c-13.307,14.145-21.665,32.697-18.826,51.609
		c4.301,28.64,30.794,47.609,53.447,65.651c83.062,66.155,140.516,163.668,158.126,268.385
		c17.613,104.715-4.781,215.657-61.632,305.345c-46.243,72.951-113.004,130.476-165.105,199.365
		c-16.63,21.99-32.101,49.573-30.166,75.673c20.001-1.736,40.886-7.11,62.635-17.068
		c123.401-56.492,183.121-168.668,213.688-274.717c37.161-128.923,37.161-271.363,0-400.287
		C2115.906,679.445,2056.515,567.811,1934.175,511.088z"/>
</g>
</svg>
